<?xml version="1.0" encoding="utf-8"?>
<!-- Generator: Adobe Illustrator 27.2.0, SVG Export Plug-In . SVG Version: 6.00 Build 0)  -->
<svg version="1.1" id="Layer_1" xmlns="http://www.w3.org/2000/svg" xmlns:xlink="http://www.w3.org/1999/xlink" x="0px" y="0px"
	 width="167px" height="97px" viewBox="0 0 167 97" style="enable-background:new 0 0 167 97;" xml:space="preserve">
<style type="text/css">
	.st0{fill:#FFFFFF;}
</style>
<g id="VC_x5F_Horizontal_00000071554092029970527330000006291225002804012452_">
	<g>
		<polygon class="st0" points="26.5,61.8 26.5,51.8 20.9,41.9 19.3,49.3 		"/>
		<polygon class="st0" points="11.6,56.8 17.1,56.8 20,42.8 16.1,49.4 		"/>
		<polygon class="st0" points="17.1,57.5 11.6,57.5 13.5,60.6 25.4,81.4 21.3,69.6 		"/>
		<path class="st0" d="M0.4,38.1l7.4,12.8l8.9-15.4H1.9C0.6,35.5-0.2,36.9,0.4,38.1"/>
		<polygon class="st0" points="11.1,56.5 15.7,48.8 20.3,41 17.3,35.8 8.2,51.5 		"/>
		<path class="st0" d="M51.8,35.5H37l8.9,15.4l7.4-12.8C54,36.9,53.1,35.5,51.8,35.5"/>
		<polygon class="st0" points="32.9,41.9 27.2,51.8 27.2,61.8 34.4,49.3 		"/>
		<polygon class="st0" points="42.7,56.5 45.5,51.5 36.4,35.8 33.4,41 37.7,48.2 		"/>
		<polygon class="st0" points="34.6,50.3 27.2,63.1 26.9,63.7 26.9,63.7 26.5,63.1 19.1,50.3 17.7,57.1 26.9,83.5 26.9,83.5 
			36.1,57.1 		"/>
		<polygon class="st0" points="36.7,56.8 42.1,56.8 37.7,49.5 33.7,42.9 		"/>
		<polygon class="st0" points="28.3,81.4 42.1,57.5 36.6,57.5 		"/>
	</g>
	<g>
		<g>
			<path class="st0" d="M64.5,54.8L60,44.3c-0.1-0.3-0.3-0.7-0.4-1c-0.1-0.4-0.2-0.6-0.2-0.8c-0.2,0-0.4,0-0.6,0c-0.2,0-0.3,0-0.5,0
				V41h5.8v1.3c-0.5,0-0.9,0.1-1.1,0.3c-0.3,0.2-0.3,0.6,0,1.2c0.3,0.7,0.6,1.5,0.9,2.2s0.6,1.5,0.9,2.2c0.2,0.6,0.4,1,0.6,1.4
				s0.3,0.9,0.6,1.4l0,0c0.1-0.4,0.3-0.8,0.5-1.3s0.3-0.9,0.5-1.4s0.3-0.9,0.5-1.4s0.3-0.9,0.5-1.4s0.3-0.9,0.5-1.4
				c0.1-0.2,0.2-0.5,0.3-0.9c0.2-0.4,0.3-0.7,0.5-0.9c-0.2,0-0.5,0-0.8,0s-0.6,0-0.7,0V41h4.4v1.3c-0.4,0-0.8,0.2-1.2,0.5
				c-0.3,0.3-0.6,0.8-0.9,1.6c-0.2,0.6-0.4,1.2-0.7,1.7c-0.2,0.6-0.4,1.2-0.6,1.7c-0.2,0.6-0.4,1.2-0.7,1.7
				c-0.2,0.6-0.4,1.2-0.7,1.7c-0.2,0.6-0.4,1.2-0.6,1.7c-0.2,0.6-0.4,1.2-0.7,1.7L64.5,54.8L64.5,54.8z"/>
			<path class="st0" d="M72.4,53.4c0.4,0,0.6-0.1,0.8-0.2s0.3-0.4,0.3-0.6c0-0.3,0.1-0.6,0.1-0.9v-3.2c0-0.2,0-0.5,0-0.8
				s0-0.6,0.1-0.9c-0.2,0-0.5,0-0.7,0c-0.3,0-0.5,0-0.6,0v-1.5c0.6,0,1.1,0,1.5-0.1s0.7-0.1,1-0.2c0.2-0.1,0.4-0.2,0.5-0.3h1.1v6.8
				c0,0.2,0,0.4,0,0.8c0,0.3,0,0.7-0.1,1c0.2,0,0.4,0,0.7-0.1s0.4,0,0.6,0v1.5h-5.1v-1.3H72.4z M74.9,43.1c-0.4,0-0.8-0.2-1.1-0.5
				c-0.3-0.3-0.4-0.7-0.4-1.1c0-0.4,0.2-0.8,0.5-1.1s0.7-0.5,1.1-0.5s0.8,0.2,1,0.5c0.3,0.3,0.4,0.7,0.4,1.1c0,0.4-0.1,0.8-0.4,1.1
				C75.7,43,75.3,43.1,74.9,43.1z"/>
			<path class="st0" d="M78.8,53.4c0.4,0,0.6-0.1,0.8-0.2c0.2-0.1,0.3-0.4,0.3-0.6c0-0.3,0.1-0.6,0.1-0.9v-3.2c0-0.2,0-0.5,0-0.8
				s0-0.6,0.1-0.9c-0.2,0-0.5,0-0.7,0c-0.3,0-0.5,0-0.6,0v-1.5c0.6,0,1.1,0,1.5-0.1s0.7-0.1,1-0.2c0.2-0.1,0.4-0.2,0.5-0.3h1.1v6.8
				c0,0.2,0,0.4,0,0.8c0,0.3,0,0.7-0.1,1c0.2,0,0.4,0,0.7-0.1s0.4,0,0.6,0v1.5H79L78.8,53.4L78.8,53.4z M81.3,43.1
				c-0.4,0-0.8-0.2-1.1-0.5c-0.3-0.3-0.4-0.7-0.4-1.1c0-0.4,0.2-0.8,0.5-1.1s0.7-0.5,1.1-0.5s0.8,0.2,1,0.5c0.3,0.3,0.4,0.7,0.4,1.1
				c0,0.4-0.1,0.8-0.4,1.1C82.1,43,81.7,43.1,81.3,43.1z"/>
			<path class="st0" d="M89,55c-0.4,0-0.8,0-1.1-0.1c-0.4-0.1-0.7-0.3-1-0.5c-0.3-0.3-0.5-0.6-0.7-1.1s-0.3-1.2-0.3-2v-4.7h-1.3V45
				c0.4,0,0.8-0.2,1.2-0.4c0.4-0.3,0.7-0.6,1-1s0.4-0.9,0.5-1.3h1.4V45h2.5v1.5l-2.5,0.1v4.8c0,0.3,0,0.6,0.1,0.9
				c0.1,0.3,0.2,0.5,0.3,0.7s0.4,0.3,0.7,0.3c0.2,0,0.4-0.1,0.8-0.2c0.3-0.1,0.7-0.5,1-1l0.9,0.9c-0.4,0.5-0.7,0.9-1.1,1.2
				s-0.7,0.5-1.1,0.6C90,54.9,89.6,55,89.4,55C89.3,54.9,89.1,55,89,55z"/>
			<path class="st0" d="M98,55c-0.9,0-1.8-0.2-2.5-0.6c-0.8-0.4-1.4-1-1.8-1.7C93.3,51.9,93,51,93,50c0-1.1,0.2-2,0.7-2.8
				s1.1-1.4,1.8-1.9c0.8-0.5,1.6-0.7,2.5-0.7s1.8,0.2,2.5,0.6c0.7,0.4,1.3,1,1.8,1.7c0.4,0.8,0.6,1.6,0.6,2.7c0,1.1-0.2,2-0.6,2.9
				c-0.4,0.8-1,1.4-1.7,1.9C99.8,54.7,99,55,98,55z M98.1,53.6c0.5,0,0.9-0.2,1.2-0.6c0.3-0.4,0.5-0.8,0.6-1.3s0.2-1.1,0.2-1.6
				s0-1-0.1-1.5s-0.2-0.9-0.3-1.4c-0.2-0.4-0.4-0.7-0.6-1c-0.3-0.3-0.6-0.4-1-0.4c-0.5,0-0.9,0.2-1.2,0.6c-0.3,0.4-0.5,0.8-0.6,1.3
				s-0.2,1.1-0.2,1.7c0,0.7,0.1,1.3,0.2,2c0.1,0.6,0.4,1.2,0.7,1.6C97.1,53.4,97.6,53.6,98.1,53.6z"/>
			<path class="st0" d="M104.3,53.4c0.4,0,0.6-0.1,0.8-0.2s0.3-0.4,0.3-0.6c0-0.3,0.1-0.6,0.1-0.9v-3.3c0-0.2,0-0.5,0-0.8
				s0-0.6,0.1-0.9c-0.2,0-0.5,0-0.7,0s-0.5,0-0.6,0v-1.5h0.8c0.5,0,1-0.1,1.4-0.2c0.4-0.1,0.7-0.3,0.8-0.4h1c0,0.1,0,0.4,0.1,0.7
				c0,0.4,0,0.7,0,1c0.4-0.4,0.7-0.8,1-1c0.3-0.3,0.6-0.5,0.9-0.6s0.6-0.2,0.9-0.2c0.5,0,0.9,0.1,1.2,0.4c0.3,0.3,0.5,0.7,0.5,1.2
				c0,0.2,0,0.4-0.1,0.6c-0.1,0.2-0.2,0.4-0.4,0.5c-0.2,0.1-0.5,0.2-0.8,0.2s-0.5-0.1-0.8-0.2c-0.3-0.2-0.4-0.5-0.5-0.9
				c-0.3,0-0.5,0.1-0.8,0.3s-0.5,0.5-0.7,0.8s-0.3,0.6-0.4,0.8v3.2c0,0.2,0,0.4,0,0.8c0,0.3,0,0.7-0.1,1c0.2,0,0.4,0,0.7-0.1
				s0.4,0,0.6,0v1.5h-5.1v-1.2C104.5,53.4,104.3,53.4,104.3,53.4z"/>
			<path class="st0" d="M124,45.3c-0.2-1.1-0.5-1.9-1.1-2.4c-0.6-0.6-1.3-0.8-2.2-0.8c-0.7,0-1.3,0.2-1.8,0.5s-0.9,0.7-1.3,1.3
				c-0.3,0.5-0.6,1.1-0.7,1.8c-0.2,0.7-0.2,1.4-0.2,2.1c0,1.1,0.2,2.1,0.5,3s0.8,1.5,1.4,2s1.4,0.7,2.2,0.7c0.8,0,1.6-0.2,2.4-0.6
				c0.8-0.4,1.5-1,2-1.8l0.9,0.9c-0.6,0.9-1.3,1.5-2,2s-1.4,0.8-2.1,0.9c-0.7,0.2-1.3,0.2-1.8,0.2c-1,0-1.9-0.2-2.7-0.5
				c-0.8-0.4-1.5-0.9-2.1-1.5s-1.1-1.4-1.4-2.2s-0.5-1.8-0.5-2.7s0.1-1.8,0.4-2.6c0.3-0.9,0.7-1.7,1.3-2.4c0.6-0.7,1.3-1.3,2.1-1.7
				c0.9-0.4,1.9-0.6,3-0.6c0.5,0,1.1,0.1,1.7,0.2c0.6,0.2,1.2,0.4,1.7,0.7l-0.1-0.8h1.5v4.6H124V45.3z"/>
			<path class="st0" d="M126.8,53.4c0.4,0,0.6-0.1,0.8-0.2c0.2-0.1,0.3-0.4,0.3-0.6c0-0.3,0.1-0.6,0.1-0.9v-8c0-0.2,0-0.5,0-0.8
				s0-0.6,0.1-0.9c-0.2,0-0.5,0-0.7,0c-0.3,0-0.5,0-0.6,0v-1.5c0.6,0,1.1,0,1.5-0.1s0.7-0.1,1-0.2c0.2-0.1,0.4-0.2,0.5-0.3h1.1v11.6
				c0,0.2,0,0.4,0,0.8c0,0.3,0,0.7-0.1,1c0.2,0,0.5,0,0.7-0.1c0.3,0,0.4,0,0.6,0v1.5H127L126.8,53.4L126.8,53.4z"/>
			<path class="st0" d="M138.1,55c-0.9,0-1.8-0.2-2.5-0.6s-1.4-1-1.8-1.7c-0.4-0.8-0.7-1.6-0.7-2.6c0-1.1,0.2-2,0.7-2.8
				s1.1-1.4,1.8-1.9c0.8-0.5,1.6-0.7,2.5-0.7s1.8,0.2,2.5,0.6c0.7,0.4,1.3,1,1.8,1.7s0.6,1.6,0.6,2.7c0,1.1-0.2,2-0.6,2.9
				c-0.4,0.8-1,1.4-1.7,1.9C139.9,54.7,139,55,138.1,55z M138.1,53.6c0.5,0,0.9-0.2,1.2-0.6c0.3-0.4,0.5-0.8,0.6-1.3
				s0.2-1.1,0.2-1.6s0-1-0.1-1.5s-0.2-0.9-0.3-1.4c-0.2-0.4-0.4-0.7-0.6-1c-0.3-0.3-0.6-0.4-1-0.4c-0.5,0-0.9,0.2-1.2,0.6
				c-0.3,0.4-0.5,0.8-0.6,1.3s-0.2,1.1-0.2,1.7c0,0.7,0.1,1.3,0.2,2s0.4,1.2,0.7,1.6C137.2,53.4,137.6,53.6,138.1,53.6z"/>
			<path class="st0" d="M148.4,55c-0.8,0-1.4-0.2-1.9-0.5s-0.8-0.8-1-1.4c-0.2-0.6-0.3-1.5-0.3-2.5v-2.2c0-0.2,0-0.5,0-0.8
				s0-0.6,0-0.9c-0.2,0-0.5,0-0.7,0c-0.3,0-0.5,0-0.6,0v-1.5h0.2c0.8,0,1.4-0.1,1.9-0.2c0.5-0.1,0.8-0.3,0.9-0.4h1.1v6
				c0,0.8,0.1,1.5,0.3,1.9s0.6,0.6,1.1,0.6c0.3,0,0.7-0.1,1-0.3s0.6-0.4,0.9-0.7v-3.8c0-0.2,0-0.5,0-0.8s0-0.6,0.1-0.9
				c-0.2,0-0.5,0-0.7,0c-0.3,0-0.5,0-0.6,0v-1.5h0.5c0.6,0,1.2-0.1,1.6-0.2c0.5-0.1,0.8-0.3,0.9-0.4h1.1v6.8c0,0.2,0,0.4,0,0.8
				c0,0.3,0,0.7-0.1,1c0.2,0,0.4,0,0.7-0.1c0.3,0,0.4,0,0.6,0v1.5h-3.7c0-0.2,0-0.3-0.1-0.5c0-0.2,0-0.3-0.1-0.5
				c-0.4,0.3-0.8,0.6-1.3,0.9C149.6,54.8,149,55,148.4,55z"/>
			<path class="st0" d="M160.2,55c-0.8,0-1.5-0.2-2.1-0.6c-0.6-0.4-1.1-1-1.4-1.7c-0.3-0.7-0.5-1.6-0.5-2.6c0-1.1,0.2-2,0.6-2.8
				c0.4-0.8,1-1.5,1.7-1.9c0.7-0.5,1.6-0.7,2.5-0.7c0.4,0,0.7,0,1,0.1s0.5,0.2,0.8,0.2v-1.3c0-0.2,0-0.4,0-0.8c0-0.3,0-0.7,0.1-0.9
				c-0.2,0-0.5,0-0.7,0c-0.3,0-0.5,0-0.6,0v-1.5c0.6,0,1.1,0,1.5-0.1s0.7-0.1,1-0.2c0.2-0.1,0.4-0.2,0.5-0.3h1.1v11.6
				c0,0.2,0,0.4,0,0.8c0,0.3,0,0.7-0.1,1c0.2,0,0.5,0,0.7-0.1c0.3,0,0.4,0,0.6,0v1.5h-3.7c0-0.1,0-0.3-0.1-0.5c0-0.2,0-0.3-0.1-0.5
				c-0.4,0.4-0.9,0.8-1.3,0.9C161.2,54.9,160.7,55,160.2,55z M161.2,53.2c0.3,0,0.7-0.1,0.9-0.3c0.3-0.2,0.5-0.4,0.7-0.7
				c0-0.2,0-0.4,0-0.6c0-0.2,0-0.4,0-0.6v-4.7c-0.1-0.1-0.3-0.2-0.6-0.3s-0.5-0.1-0.8-0.1c-0.6,0-1.1,0.2-1.4,0.6
				c-0.3,0.4-0.6,0.8-0.7,1.4s-0.2,1.1-0.2,1.8c0,0.6,0.1,1.1,0.2,1.6c0.1,0.5,0.4,1,0.7,1.3C160.3,53,160.7,53.2,161.2,53.2z"/>
		</g>
		<g>
			<path class="st0" d="M68.6,65.9c0-0.7-0.1-1.3-0.2-1.7c-0.1-0.5-0.4-0.8-0.7-1c-0.3-0.2-0.8-0.3-1.4-0.3h-1.5v9.6
				c0,0.3,0,0.6,0,0.8c0,0.2,0,0.4,0,0.6c0.3,0,0.5,0,0.7,0s0.5,0,0.7,0v0.8H62v-0.6c0.4,0,0.8-0.1,0.9-0.3c0.2-0.2,0.3-0.4,0.3-0.8
				s0-0.7,0-1.1v-9h-1.8c-0.7,0-1.3,0.3-1.6,0.7c-0.3,0.5-0.5,1.3-0.5,2.3h-0.7l0.1-3.7H69l0.1,3.7H68.6L68.6,65.9z"/>
			<path class="st0" d="M73.8,74.8c-0.8,0-1.5-0.2-2.2-0.6s-1.2-0.9-1.5-1.6c-0.4-0.7-0.6-1.5-0.6-2.5c0-0.8,0.2-1.6,0.6-2.3
				c0.4-0.7,0.9-1.3,1.6-1.7s1.4-0.7,2.3-0.7c0.5,0,1,0.1,1.4,0.2c0.4,0.2,0.8,0.4,1.1,0.7c0.3,0.3,0.6,0.7,0.8,1.2
				c0.2,0.5,0.3,1.1,0.3,1.7l-6.2,0.1c0,0.9,0.1,1.7,0.3,2.4c0.2,0.7,0.5,1.2,0.9,1.6s1,0.6,1.7,0.6c0.4,0,0.7-0.1,1.1-0.2
				s0.7-0.3,1.1-0.5c0.3-0.2,0.6-0.5,0.8-0.7l0.4,0.4c-0.3,0.5-0.7,0.9-1.1,1.2c-0.5,0.3-0.9,0.5-1.4,0.6
				C74.7,74.7,74.2,74.8,73.8,74.8z M71.4,68.7h4.5c0-0.4-0.1-0.8-0.2-1.2s-0.3-0.7-0.6-1c-0.3-0.3-0.7-0.4-1.1-0.4
				c-0.7,0-1.3,0.2-1.7,0.6C71.8,67.1,71.5,67.8,71.4,68.7z"/>
			<path class="st0" d="M83.3,74.8c-0.8,0-1.5-0.2-2.2-0.5c-0.7-0.4-1.2-0.9-1.6-1.6S79,71.2,79,70.3c0-0.6,0.1-1.2,0.3-1.8
				c0.2-0.6,0.5-1.1,0.9-1.6s0.9-0.8,1.5-1.1c0.6-0.3,1.2-0.4,1.9-0.4c0.7,0,1.2,0.1,1.7,0.3s0.9,0.5,1.1,0.8
				c0.3,0.3,0.4,0.7,0.4,1.1c0,0.3-0.1,0.5-0.2,0.7s-0.4,0.3-0.6,0.3c-0.3,0-0.5-0.1-0.6-0.3s-0.2-0.4-0.2-0.5s0-0.2,0.1-0.4
				s0.1-0.2,0.2-0.3c-0.1-0.3-0.3-0.5-0.5-0.6c-0.2-0.1-0.5-0.2-0.7-0.3c-0.3,0-0.5-0.1-0.6-0.1c-0.8,0-1.5,0.3-2,1
				c-0.5,0.6-0.8,1.6-0.8,2.8c0,0.8,0.1,1.5,0.4,2.1s0.6,1.1,1.1,1.4c0.5,0.4,1,0.5,1.6,0.5s1.1-0.2,1.6-0.4
				c0.5-0.3,0.9-0.7,1.2-1.1l0.5,0.4c-0.3,0.5-0.7,0.9-1.1,1.2c-0.4,0.3-0.9,0.5-1.3,0.7C84.2,74.7,83.7,74.8,83.3,74.8z"/>
			<path class="st0" d="M94.1,74c0.4,0,0.6-0.1,0.8-0.3c0.1-0.2,0.2-0.4,0.3-0.8c0-0.3,0-0.7,0-1.1v-2.5c0-1-0.2-1.8-0.5-2.3
				s-0.8-0.8-1.5-0.7c-0.4,0-0.9,0.1-1.3,0.3c-0.4,0.2-0.8,0.5-1,0.8v5.2c0,0.2,0,0.4,0,0.6s0,0.4-0.1,0.6c0.2,0,0.4,0,0.6,0
				s0.4,0,0.6,0v0.7h-3.6V74c0.4,0,0.6-0.1,0.8-0.3c0.2-0.2,0.2-0.4,0.3-0.8c0-0.3,0-0.7,0-1.1v-8.3c0-0.2,0-0.4,0-0.5s0-0.4,0-0.6
				c-0.2,0-0.4,0-0.6,0s-0.4,0-0.6,0v-0.7c0.5,0,0.9,0,1.2-0.1c0.3-0.1,0.5-0.1,0.7-0.2c0.2-0.1,0.3-0.2,0.3-0.2H91v5.4
				c0.3-0.2,0.6-0.4,0.9-0.6s0.7-0.3,1-0.4s0.7-0.2,1-0.2c1,0,1.8,0.3,2.2,1c0.4,0.7,0.7,1.6,0.7,3v3.3c0,0.2,0,0.4,0,0.6
				s0,0.4-0.1,0.6c0.2,0,0.4,0,0.6,0s0.4,0,0.6,0v0.7h-3.6L94.1,74L94.1,74z"/>
			<path class="st0" d="M99,74.5V74c0.4,0,0.6-0.1,0.8-0.3c0.1-0.2,0.2-0.4,0.3-0.8c0-0.3,0-0.7,0-1.1v-4c0-0.2,0-0.4,0-0.6
				s0-0.4,0.1-0.6c-0.2,0-0.4,0-0.6,0s-0.4,0-0.6,0V66c0.5,0,0.9,0,1.2-0.1c0.3-0.1,0.5-0.1,0.6-0.2c0.1-0.1,0.2-0.2,0.3-0.2h0.5
				c0,0.1,0,0.2,0,0.3c0,0.1,0,0.2,0,0.4c0,0.1,0,0.3,0,0.4c0.3-0.2,0.5-0.4,0.9-0.6c0.3-0.2,0.6-0.3,1-0.4c0.4-0.1,0.7-0.2,1-0.2
				c1,0,1.8,0.3,2.2,1c0.5,0.6,0.7,1.6,0.7,3v3.3c0,0.2,0,0.4,0,0.6s0,0.4-0.1,0.6c0.2,0,0.4,0,0.6,0s0.4,0,0.6,0v0.7h-3.6V74
				c0.4,0,0.6-0.1,0.8-0.3c0.1-0.2,0.2-0.4,0.3-0.8c0-0.3,0-0.7,0-1.1v-2.5c0-1-0.2-1.8-0.5-2.3s-0.8-0.8-1.5-0.8
				c-0.4,0-0.8,0.1-1.2,0.3c-0.4,0.2-0.7,0.5-1,0.8c0,0.1,0,0.2,0,0.3c0,0.1,0,0.2,0,0.4v4.5c0,0.2,0,0.4,0,0.6s0,0.4-0.1,0.6
				c0.2,0,0.4,0,0.6,0s0.4,0,0.6,0v0.7L99,74.5L99,74.5z"/>
			<path class="st0" d="M114.1,74.8c-0.8,0-1.6-0.2-2.2-0.6c-0.7-0.4-1.2-0.9-1.6-1.6s-0.6-1.5-0.6-2.3c0-0.9,0.2-1.8,0.6-2.5
				s0.9-1.3,1.6-1.8c0.7-0.4,1.4-0.6,2.3-0.6c0.8,0,1.6,0.2,2.2,0.6c0.7,0.4,1.2,0.9,1.6,1.6s0.6,1.4,0.6,2.3s-0.2,1.7-0.6,2.5
				c-0.4,0.7-0.9,1.3-1.6,1.8C115.7,74.6,114.9,74.8,114.1,74.8z M114.2,74.1c0.6,0,1.1-0.2,1.5-0.5c0.4-0.4,0.6-0.8,0.8-1.4
				c0.2-0.6,0.2-1.2,0.2-1.8c0-0.5-0.1-1.1-0.2-1.6s-0.3-1-0.5-1.4s-0.5-0.8-0.8-1c-0.3-0.3-0.7-0.4-1.2-0.4c-0.6,0-1.1,0.2-1.5,0.5
				c-0.4,0.4-0.7,0.8-0.9,1.4c-0.2,0.6-0.3,1.2-0.3,1.8c0,0.7,0.1,1.4,0.3,2.1s0.5,1.2,0.9,1.6C113.1,73.9,113.6,74.1,114.2,74.1z"
				/>
			<path class="st0" d="M119.8,74c0.4,0,0.6-0.1,0.8-0.3c0.1-0.2,0.2-0.4,0.3-0.8c0-0.3,0-0.7,0-1.1v-8.3c0-0.2,0-0.4,0-0.5
				c0-0.2,0-0.4,0-0.6c-0.2,0-0.4,0-0.6,0s-0.4,0-0.6,0v-0.7c0.5,0,0.9,0,1.2-0.1c0.3-0.1,0.5-0.1,0.7-0.2c0.2-0.1,0.3-0.2,0.3-0.2
				h0.5v11.4c0,0.2,0,0.4,0,0.6s0,0.4-0.1,0.6c0.2,0,0.4,0,0.6,0s0.4,0,0.6,0v0.7h-3.6L119.8,74L119.8,74z"/>
			<path class="st0" d="M129.2,74.8c-0.8,0-1.6-0.2-2.2-0.6c-0.7-0.4-1.2-0.9-1.6-1.6s-0.6-1.5-0.6-2.3c0-0.9,0.2-1.8,0.6-2.5
				s0.9-1.3,1.6-1.8c0.7-0.4,1.4-0.6,2.3-0.6c0.8,0,1.6,0.2,2.2,0.6c0.7,0.4,1.2,0.9,1.6,1.6c0.4,0.7,0.6,1.4,0.6,2.3
				s-0.2,1.7-0.6,2.5c-0.4,0.7-0.9,1.3-1.6,1.8C130.8,74.6,130,74.8,129.2,74.8z M129.3,74.1c0.6,0,1.1-0.2,1.5-0.5
				c0.4-0.4,0.6-0.8,0.8-1.4s0.2-1.2,0.2-1.8c0-0.5-0.1-1.1-0.2-1.6c-0.1-0.5-0.3-1-0.5-1.4s-0.5-0.8-0.8-1
				c-0.3-0.3-0.7-0.4-1.2-0.4c-0.6,0-1.1,0.2-1.5,0.5s-0.7,0.8-0.9,1.4c-0.2,0.6-0.3,1.2-0.3,1.8c0,0.7,0.1,1.4,0.3,2.1
				s0.5,1.2,0.9,1.6C128.2,73.9,128.7,74.1,129.3,74.1z"/>
			<path class="st0" d="M139.4,79.3c-1.1,0-1.9-0.1-2.6-0.4c-0.6-0.2-1.1-0.5-1.4-0.9c-0.3-0.4-0.4-0.7-0.4-1.1s0.1-0.7,0.3-1
				s0.4-0.5,0.6-0.7c0.3-0.2,0.5-0.4,0.7-0.4c-0.4-0.1-0.7-0.3-0.9-0.5s-0.3-0.5-0.3-0.9s0.2-0.8,0.5-1.2c0.3-0.4,0.8-0.6,1.3-0.7
				c-0.5-0.3-1-0.6-1.3-1.1s-0.5-1-0.5-1.6c0-0.7,0.2-1.3,0.5-1.8c0.4-0.5,0.8-0.9,1.4-1.2s1.2-0.4,1.8-0.4c0.4,0,0.8,0.1,1.2,0.2
				c0.4,0.1,0.7,0.3,1.1,0.5c0.1-0.3,0.3-0.6,0.5-0.9s0.5-0.5,0.8-0.6c0.3-0.1,0.6-0.2,0.9-0.2c0.3,0,0.5,0.1,0.7,0.2
				c0.2,0.2,0.2,0.4,0.2,0.6c0,0.1,0,0.2-0.1,0.3s-0.1,0.2-0.2,0.3c-0.1,0.1-0.3,0.1-0.5,0.1s-0.4-0.1-0.5-0.2s-0.2-0.3-0.3-0.4
				c-0.3,0.1-0.5,0.2-0.7,0.4s-0.3,0.5-0.3,0.8c0.3,0.3,0.5,0.6,0.7,0.9c0.2,0.4,0.3,0.8,0.3,1.2c0,0.7-0.2,1.2-0.5,1.8
				c-0.4,0.5-0.8,0.9-1.4,1.2c-0.6,0.3-1.2,0.4-1.8,0.4c-0.2,0-0.4,0-0.6,0c-0.2,0-0.4,0-0.6,0c-0.4,0-0.8,0.1-1.1,0.3
				c-0.3,0.2-0.4,0.5-0.3,0.8c0.1,0.3,0.4,0.5,0.9,0.5c0.5,0.1,1.1,0.1,1.9,0.2c0.9,0,1.7,0.1,2.3,0.3s1.1,0.5,1.5,0.8
				c0.4,0.4,0.5,0.9,0.5,1.5c0,0.5-0.1,0.9-0.4,1.3c-0.3,0.4-0.6,0.7-1,0.9c-0.4,0.3-0.9,0.4-1.4,0.6
				C140.4,79.2,139.9,79.3,139.4,79.3z M139.4,78.6c1,0,1.8-0.2,2.4-0.6c0.6-0.4,0.8-0.8,0.8-1.3c0-0.4-0.2-0.8-0.4-1
				s-0.7-0.4-1.2-0.5s-1.1-0.1-1.7-0.2c-0.3,0-0.6,0-0.9,0s-0.6-0.1-0.9-0.1c-0.3,0.2-0.6,0.5-0.7,0.8c-0.2,0.3-0.3,0.6-0.3,1
				c0,0.6,0.3,1,0.8,1.4C137.7,78.4,138.5,78.6,139.4,78.6z M139.1,71.4c0.4,0,0.8-0.1,1.1-0.3c0.3-0.2,0.5-0.5,0.7-0.9
				s0.2-0.8,0.2-1.2c0-0.5-0.1-1-0.2-1.4c-0.2-0.4-0.4-0.8-0.7-1.1c-0.3-0.3-0.7-0.4-1.1-0.4c-0.6,0-1.1,0.2-1.5,0.7
				s-0.5,1.1-0.5,1.8c0,0.6,0.1,1.1,0.3,1.5s0.4,0.8,0.7,1C138.3,71.2,138.7,71.4,139.1,71.4z"/>
			<path class="st0" d="M145.3,74c0.4,0,0.6-0.1,0.8-0.3c0.1-0.2,0.2-0.4,0.3-0.8c0-0.3,0-0.7,0-1.1v-4c0-0.2,0-0.4,0-0.5
				c0-0.2,0-0.4,0.1-0.6c-0.2,0-0.4,0-0.6,0c-0.2,0-0.4,0-0.6,0V66c0.5,0,0.9,0,1.2-0.1s0.5-0.1,0.6-0.2c0.2-0.1,0.3-0.2,0.3-0.2
				h0.5v7.1c0,0.2,0,0.4,0,0.6s0,0.4-0.1,0.6c0.2,0,0.4,0,0.6,0c0.2,0,0.4,0,0.6,0v0.7h-3.6L145.3,74L145.3,74z M147,63.8
				c-0.3,0-0.5-0.1-0.7-0.3S146,63,146,62.8c0-0.3,0.1-0.5,0.3-0.8c0.2-0.2,0.4-0.3,0.7-0.3s0.5,0.1,0.7,0.3s0.3,0.5,0.3,0.8
				s-0.1,0.5-0.3,0.7S147.3,63.8,147,63.8z"/>
			<path class="st0" d="M154.6,74.8c-0.8,0-1.5-0.2-2.2-0.6s-1.2-0.9-1.5-1.6c-0.4-0.7-0.6-1.5-0.6-2.5c0-0.8,0.2-1.6,0.6-2.3
				c0.4-0.7,0.9-1.3,1.6-1.7s1.4-0.7,2.3-0.7c0.5,0,1,0.1,1.4,0.2c0.4,0.2,0.8,0.4,1.1,0.7c0.3,0.3,0.6,0.7,0.8,1.2s0.3,1.1,0.3,1.7
				l-6.2,0.1c0,0.9,0.1,1.7,0.3,2.4c0.2,0.7,0.5,1.2,0.9,1.6s1,0.6,1.7,0.6c0.4,0,0.7-0.1,1.1-0.2c0.4-0.1,0.7-0.3,1.1-0.5
				c0.3-0.2,0.6-0.5,0.8-0.7l0.4,0.4c-0.3,0.5-0.7,0.9-1.1,1.2c-0.5,0.3-0.9,0.5-1.4,0.6C155.4,74.7,155,74.8,154.6,74.8z
				 M152.1,68.7h4.5c0-0.4-0.1-0.8-0.2-1.2c-0.1-0.4-0.3-0.7-0.6-1s-0.7-0.4-1.1-0.4c-0.7,0-1.3,0.2-1.7,0.6
				C152.6,67.1,152.3,67.8,152.1,68.7z"/>
			<path class="st0" d="M163.5,74.8c-0.6,0-1.1-0.1-1.6-0.2c-0.5-0.2-0.8-0.3-1.1-0.5l0.1,0.6h-0.7l-0.1-3h0.5
				c0,0.5,0.2,0.9,0.4,1.3c0.3,0.4,0.6,0.7,1,0.9c0.4,0.2,0.8,0.3,1.3,0.3c0.3,0,0.6-0.1,0.9-0.2c0.3-0.1,0.5-0.3,0.7-0.5
				s0.3-0.5,0.3-0.8s-0.1-0.6-0.3-0.8c-0.2-0.2-0.5-0.4-0.8-0.6s-0.7-0.3-1-0.5c-0.4-0.1-0.7-0.3-1.1-0.4c-0.4-0.2-0.7-0.3-1-0.5
				s-0.5-0.5-0.7-0.8S160,68.4,160,68c0-0.3,0.1-0.5,0.1-0.8c0.1-0.3,0.3-0.6,0.5-0.8c0.2-0.3,0.5-0.5,0.9-0.7
				c0.4-0.2,0.9-0.3,1.5-0.3c0.3,0,0.7,0.1,1.1,0.2c0.4,0.1,0.8,0.3,1.1,0.6v-0.7h0.7v3.1h-0.6c0-0.4-0.1-0.8-0.3-1.2
				c-0.2-0.4-0.4-0.7-0.7-1c-0.3-0.3-0.7-0.4-1.2-0.4s-1,0.1-1.3,0.4c-0.3,0.3-0.5,0.6-0.5,0.9c0,0.4,0.1,0.7,0.3,0.9
				c0.2,0.2,0.5,0.5,0.9,0.6c0.4,0.2,0.8,0.4,1.2,0.5c0.4,0.2,0.9,0.4,1.3,0.6c0.4,0.2,0.8,0.5,1,0.8c0.3,0.3,0.4,0.8,0.4,1.3
				c0,0.6-0.2,1.1-0.5,1.5s-0.7,0.7-1.1,0.9C164.5,74.7,164,74.8,163.5,74.8z"/>
		</g>
	</g>
</g>
</svg>
